<svg width="115" height="35" viewBox="0 0 115 35" fill="none" xmlns="http://www.w3.org/2000/svg">
<path d="M50.4844 28H45.7344L39.1719 9.95312H44.4531L49.2656 24.3281L53.9375 9.95312H57.5938L50.4844 28ZM62.8369 19.4375C63.4827 19.5833 64.1285 19.6979 64.7744 19.7812C65.4202 19.8646 66.0713 19.9062 66.7275 19.9062C67.415 19.9062 68.0504 19.8438 68.6338 19.7188C69.2275 19.5833 69.7379 19.3646 70.165 19.0625C70.6025 18.75 70.9463 18.3385 71.1963 17.8281C71.4463 17.3177 71.5713 16.6823 71.5713 15.9219C71.5713 15.3073 71.4879 14.7448 71.3213 14.2344C71.1546 13.724 70.9046 13.2865 70.5713 12.9219C70.2483 12.5573 69.8473 12.276 69.3681 12.0781C68.889 11.8698 68.3317 11.7656 67.6963 11.7656C67.1025 11.7656 66.566 11.875 66.0869 12.0938C65.6181 12.3125 65.2015 12.6094 64.8369 12.9844C64.4827 13.349 64.1754 13.776 63.915 14.2656C63.665 14.7552 63.4567 15.2656 63.29 15.7969C63.1233 16.3281 63.0035 16.8646 62.9306 17.4062C62.8577 17.9479 62.8213 18.4583 62.8213 18.9375C62.8213 19.0208 62.8213 19.1042 62.8213 19.1875C62.8213 19.2708 62.8265 19.3542 62.8369 19.4375ZM75.8525 15.875C75.8525 16.6146 75.7327 17.276 75.4931 17.8594C75.2535 18.4323 74.9254 18.9375 74.5088 19.375C74.1025 19.8125 73.6285 20.1823 73.0869 20.4844C72.5452 20.7865 71.9671 21.0365 71.3525 21.2344C70.7379 21.4219 70.1025 21.5573 69.4463 21.6406C68.8004 21.724 68.1702 21.7656 67.5556 21.7656C66.7744 21.7656 66.0035 21.7135 65.2431 21.6094C64.4827 21.4948 63.7327 21.3177 62.9931 21.0781C63.1077 21.7656 63.29 22.4219 63.54 23.0469C63.79 23.6615 64.1233 24.2031 64.54 24.6719C64.9567 25.1302 65.4671 25.4948 66.0713 25.7656C66.6858 26.0365 67.4098 26.1719 68.2431 26.1719C68.7952 26.1719 69.3213 26.0885 69.8213 25.9219C70.3213 25.7552 70.7796 25.5208 71.1963 25.2188C71.6129 24.9167 71.9775 24.5573 72.29 24.1406C72.6129 23.724 72.8733 23.2604 73.0713 22.75L75.3525 23.5938C75.0088 24.4167 74.5348 25.1302 73.9306 25.7344C73.3369 26.3281 72.6598 26.8229 71.8994 27.2188C71.1494 27.6042 70.3473 27.8906 69.4931 28.0781C68.6494 28.2656 67.8108 28.3594 66.9775 28.3594C65.6025 28.3594 64.3317 28.1302 63.165 27.6719C61.9983 27.2031 60.9931 26.5521 60.1494 25.7188C59.3056 24.8854 58.6442 23.8906 58.165 22.7344C57.6858 21.5781 57.4463 20.3125 57.4463 18.9375C57.4463 17.5625 57.6858 16.2969 58.165 15.1406C58.6442 13.9844 59.3056 12.9896 60.1494 12.1562C60.9931 11.3229 61.9983 10.6771 63.165 10.2188C64.3317 9.75 65.6025 9.51562 66.9775 9.51562C67.6442 9.51562 68.3265 9.5625 69.0244 9.65625C69.7223 9.75 70.3994 9.90104 71.0556 10.1094C71.7119 10.3073 72.3317 10.5677 72.915 10.8906C73.4983 11.2135 74.0035 11.6146 74.4306 12.0938C74.8681 12.5625 75.2119 13.1094 75.4619 13.7344C75.7223 14.3594 75.8525 15.0729 75.8525 15.875ZM93.5488 28H88.2675L83.8456 21.6719L79.33 28H75.6738L82.4706 19.6875L75.6738 9.95312H80.955L85.2363 16.0781L89.8925 9.95312H93.5488L86.6113 18.0469L93.5488 28ZM112.526 28H107.245V25.8438C106.62 26.6979 105.865 27.3333 104.979 27.75C104.104 28.1562 103.141 28.3594 102.089 28.3594C100.714 28.3594 99.4846 28.1146 98.4012 27.625C97.3179 27.1354 96.4012 26.4688 95.6512 25.625C94.9012 24.7708 94.3283 23.7708 93.9325 22.625C93.5367 21.4792 93.3387 20.25 93.3387 18.9375C93.3387 17.625 93.5367 16.3958 93.9325 15.25C94.3283 14.1042 94.9012 13.1094 95.6512 12.2656C96.4012 11.4115 97.3179 10.7396 98.4012 10.25C99.4846 9.76042 100.714 9.51562 102.089 9.51562C102.787 9.51562 103.448 9.61979 104.073 9.82812C104.709 10.0365 105.287 10.3333 105.807 10.7188C106.339 11.0938 106.802 11.5521 107.198 12.0938C107.604 12.625 107.922 13.2188 108.151 13.875L110.495 9.95312H112.526V28ZM107.214 18.9375C107.214 18.4688 107.188 17.974 107.136 17.4531C107.094 16.9323 107.016 16.4167 106.901 15.9062C106.787 15.3958 106.625 14.9115 106.417 14.4531C106.219 13.9844 105.959 13.5729 105.636 13.2188C105.323 12.8542 104.943 12.5677 104.495 12.3594C104.047 12.151 103.526 12.0469 102.932 12.0469C102.339 12.0469 101.823 12.1562 101.386 12.375C100.948 12.5833 100.573 12.8698 100.261 13.2344C99.9481 13.5885 99.6877 14 99.4794 14.4688C99.2815 14.9375 99.1252 15.4271 99.0106 15.9375C98.896 16.4479 98.8127 16.9635 98.7606 17.4844C98.719 17.9948 98.6981 18.4792 98.6981 18.9375C98.6981 19.3958 98.719 19.8854 98.7606 20.4062C98.8127 20.9271 98.896 21.4427 99.0106 21.9531C99.1252 22.4635 99.2815 22.9531 99.4794 23.4219C99.6877 23.8906 99.9481 24.3073 100.261 24.6719C100.573 25.026 100.948 25.3125 101.386 25.5312C101.823 25.7396 102.339 25.8438 102.932 25.8438C103.474 25.8438 103.953 25.7344 104.37 25.5156C104.797 25.2865 105.167 24.9844 105.479 24.6094C105.802 24.2344 106.073 23.8073 106.292 23.3281C106.511 22.849 106.688 22.3542 106.823 21.8438C106.959 21.3333 107.057 20.8281 107.12 20.3281C107.182 19.8177 107.214 19.3542 107.214 18.9375Z" fill="white"/>
<path d="M14.6333 18.9331L20.3669 18.9318C26.0876 18.9318 31.0103 15.5714 33.3103 10.7253C32.8137 9.5664 32.182 8.48151 31.4545 7.47058C30.1735 12.4048 25.6959 16.065 20.3669 16.065L14.6333 16.0667C9.27937 16.0667 4.4195 18.1875 0.816528 21.618C1.07582 22.6651 1.42541 23.6756 1.86487 24.637C5.01291 21.1437 9.56059 18.9331 14.6333 18.9331Z" fill="white"/>
<path d="M34.4221 14.4933C31.3072 18.9077 26.179 21.7999 20.3671 21.7999H14.6335C10.0579 21.7999 5.9931 23.9512 3.36877 27.2914C3.93164 28.102 4.55987 28.8631 5.25006 29.5644C7.32567 26.6082 10.7553 24.6667 14.6335 24.6667H20.3671C25.9481 24.6667 30.9998 22.3722 34.6401 18.6811C34.6668 18.2894 34.7003 17.8989 34.7003 17.4999C34.7003 16.4722 34.5941 15.4716 34.4221 14.4933Z" fill="white"/>
<path d="M14.6332 10.3334C9.44695 10.3334 4.62407 11.8844 0.574328 14.5284C0.404908 15.4959 0.299988 16.4841 0.299988 17.5002C0.299988 17.7466 0.326648 17.9874 0.337828 18.2307C4.26115 15.09 9.22765 13.2002 14.6332 13.2002L20.3668 13.1989C25.074 13.1989 28.9049 9.39553 28.9608 4.70079C28.0831 3.91392 27.1273 3.21431 26.1 2.62048V4.59762C26.1 7.75981 23.529 10.3321 20.3668 10.3321L14.6332 10.3334Z" fill="white"/>
<path d="M14.6334 7.46637L20.3671 7.46551C21.9473 7.46551 23.2334 6.17895 23.2334 4.59741V1.29931C21.4378 0.663768 19.5148 0.299988 17.5003 0.299988C10.4792 0.299988 4.44887 4.51442 1.77728 10.5473C5.6486 8.59168 10.0075 7.46637 14.6334 7.46637Z" fill="white"/>
<path d="M20.3665 27.5332H14.6329C11.6264 27.5332 8.9797 29.0868 7.44116 31.4316C10.2714 33.4792 13.7402 34.7 17.4997 34.7C24.9925 34.7 31.3474 29.9016 33.7056 23.2164C29.9431 25.9224 25.3438 27.5332 20.3665 27.5332Z" fill="white"/>
</svg>
