<svg width="35" height="35" viewBox="0 0 35 35" fill="none" xmlns="http://www.w3.org/2000/svg">
<path d="M14.6332 18.9331L20.3668 18.9318C26.0875 18.9318 31.0102 15.5714 33.3102 10.7253C32.8136 9.5664 32.1819 8.48151 31.4543 7.47058C30.1734 12.4048 25.6958 16.065 20.3668 16.065L14.6332 16.0667C9.27924 16.0667 4.41938 18.1875 0.816406 21.618C1.0757 22.6651 1.42529 23.6756 1.86475 24.637C5.01278 21.1437 9.56046 18.9331 14.6332 18.9331Z" fill="#0A0C00"/>
<path d="M34.422 14.4933C31.3071 18.9077 26.1789 21.7999 20.367 21.7999H14.6334C10.0578 21.7999 5.99298 23.9512 3.36865 27.2914C3.93152 28.102 4.55975 28.8631 5.24994 29.5644C7.32555 26.6082 10.7552 24.6667 14.6334 24.6667H20.367C25.948 24.6667 30.9996 22.3722 34.64 18.6811C34.6667 18.2894 34.7002 17.8989 34.7002 17.4999C34.7002 16.4722 34.594 15.4716 34.422 14.4933Z" fill="#0A0C00"/>
<path d="M14.633 10.3334C9.44676 10.3334 4.62388 11.8844 0.574144 14.5284C0.404724 15.4959 0.299805 16.4841 0.299805 17.5002C0.299805 17.7466 0.326465 17.9874 0.337645 18.2307C4.26096 15.09 9.22746 13.2002 14.633 13.2002L20.3666 13.1989C25.0738 13.1989 28.9047 9.39553 28.9606 4.70079C28.083 3.91392 27.1271 3.21431 26.0998 2.62048V4.59762C26.0998 7.75981 23.5288 10.3321 20.3666 10.3321L14.633 10.3334Z" fill="#0A0C00"/>
<path d="M14.6335 7.46637L20.3671 7.46551C21.9474 7.46551 23.2335 6.17895 23.2335 4.59741V1.29931C21.4378 0.663768 19.5149 0.299988 17.5003 0.299988C10.4793 0.299988 4.44893 4.51442 1.77734 10.5473C5.64866 8.59168 10.0076 7.46637 14.6335 7.46637Z" fill="#0A0C00"/>
<path d="M20.3668 27.5332H14.6332C11.6266 27.5332 8.97995 29.0868 7.44141 31.4316C10.2717 33.4792 13.7405 34.7 17.5 34.7C24.9927 34.7 31.3477 29.9016 33.7058 23.2164C29.9433 25.9224 25.344 27.5332 20.3668 27.5332Z" fill="#0A0C00"/>
</svg>
