<svg width="48" height="48" viewBox="0 0 48 48" fill="none" xmlns="http://www.w3.org/2000/svg">
<path d="M33.9375 48H14.0625C6.3 48 0 41.7 0 33.9375V14.0625C0 6.3 6.3 0 14.0625 0H33.9375C41.7 0 48 6.3 48 14.0625V33.9375C48 41.7 41.7 48 33.9375 48ZM47.0625 14.0625C47.0625 6.825 41.175 0.9375 33.9375 0.9375H14.0625C6.825 0.9375 0.9375 6.825 0.9375 14.0625V33.9375C0.9375 41.175 6.825 47.0625 14.0625 47.0625H33.9375C41.175 47.0625 47.0625 41.175 47.0625 33.9375V14.0625ZM33.96 32.7816C33.3422 32.7816 32.7572 32.5369 32.3128 32.0925L28.7691 28.5487C28.3266 28.1063 28.0828 27.5175 28.0828 26.8913V25.4906L17.9466 35.6269C17.5041 36.0694 16.9153 36.3131 16.2891 36.3131C15.6628 36.3131 15.0741 36.0694 14.6316 35.6269L12.3731 33.3684C11.4591 32.4544 11.4591 30.9675 12.3731 30.0534L22.5094 19.9172H21.1087C20.4825 19.9172 19.8947 19.6734 19.4513 19.2309L15.9075 15.6872C15.2344 15.0141 15.0356 14.0119 15.3994 13.1325C15.7631 12.2531 16.6134 11.6859 17.565 11.6859H33.9703C35.2631 11.6859 36.3141 12.7369 36.3141 14.0297V30.435C36.3141 31.7288 35.2584 32.7816 33.96 32.7816ZM35.3766 14.0297C35.3766 13.2534 34.7466 12.6234 33.9703 12.6234H17.565C16.3125 12.6234 15.6844 14.1384 16.5703 15.0244L20.1141 18.5681C20.3775 18.8316 20.7356 18.9797 21.1087 18.9797H24.7734L13.0369 30.7162C12.4875 31.2656 12.4875 32.1563 13.0369 32.7047L15.2953 34.9631C15.8447 35.5125 16.7353 35.5125 17.2838 34.9631L29.0203 23.2266V26.8913C29.0203 27.2644 29.1684 27.6216 29.4319 27.8859L32.9756 31.4297C33.8616 32.3156 35.3766 31.6884 35.3766 30.435V14.0297Z" fill="#7149D2"/>
</svg>
