<svg width="24" height="24" viewBox="0 0 24 24" fill="none" xmlns="http://www.w3.org/2000/svg">
<g clip-path="url(#clip0_489_128)">
<path d="M23.3145 3.28105C22.9614 2.92738 22.3886 2.92677 22.0355 3.27955L11.1843 14.1021L7.26917 9.84997C6.93087 9.48275 6.3589 9.45894 5.99107 9.79719C5.62353 10.1355 5.6 10.7077 5.93829 11.0753L10.4911 16.0197C10.6578 16.2009 10.8912 16.3062 11.1372 16.3113C11.1438 16.3116 11.1502 16.3116 11.1565 16.3116C11.3956 16.3116 11.6256 16.2166 11.7951 16.0477L23.3127 4.56032C23.6667 4.20758 23.6673 3.63472 23.3145 3.28105Z" fill="#0A0C00"/>
<path d="M23.0955 11.0955C22.5959 11.0955 22.191 11.5004 22.191 12C22.191 17.6195 17.6195 22.191 12 22.191C6.38081 22.191 1.80905 17.6195 1.80905 12C1.80905 6.38081 6.38081 1.80905 12 1.80905C12.4996 1.80905 12.9045 1.40414 12.9045 0.904547C12.9045 0.404906 12.4996 0 12 0C5.38312 0 0 5.38312 0 12C0 18.6166 5.38312 24 12 24C18.6166 24 24 18.6166 24 12C24 11.5004 23.5951 11.0955 23.0955 11.0955Z" fill="#0A0C00"/>
</g>
<defs>
<clipPath id="clip0_489_128">
<rect width="24" height="24" fill="white"/>
</clipPath>
</defs>
</svg>
