<svg width="32" height="32" viewBox="0 0 32 32" fill="none" xmlns="http://www.w3.org/2000/svg">
<path d="M16.0004 6.64014C16.398 6.64014 16.7204 6.9625 16.7204 7.36014V15.5201H24.8804C25.278 15.5201 25.6004 15.8425 25.6004 16.2401C25.6004 16.6378 25.278 16.9601 24.8804 16.9601H16.7204V25.1201C16.7204 25.5178 16.398 25.8401 16.0004 25.8401C15.6028 25.8401 15.2804 25.5178 15.2804 25.1201V16.9601H7.12039C6.72276 16.9601 6.40039 16.6378 6.40039 16.2401C6.40039 15.8425 6.72276 15.5201 7.12039 15.5201H15.2804V7.36014C15.2804 6.9625 15.6028 6.64014 16.0004 6.64014Z" fill="#0A0C00"/>
<path fill-rule="evenodd" clip-rule="evenodd" d="M16.0002 31.8402C24.7484 31.8402 31.8402 24.7484 31.8402 16.0002C31.8402 7.25196 24.7484 0.160156 16.0002 0.160156C7.25196 0.160156 0.160156 7.25196 0.160156 16.0002C0.160156 24.7484 7.25196 31.8402 16.0002 31.8402ZM16.0002 30.4002C23.953 30.4002 30.4002 23.953 30.4002 16.0002C30.4002 8.04728 23.953 1.60016 16.0002 1.60016C8.04728 1.60016 1.60016 8.04728 1.60016 16.0002C1.60016 23.953 8.04728 30.4002 16.0002 30.4002Z" fill="#0A0C00"/>
</svg>
