<svg width="16" height="16" viewBox="0 0 16 16" fill="none" xmlns="http://www.w3.org/2000/svg">
<path d="M12.3145 11.22L12.5745 13.3266C12.6412 13.88 12.0479 14.2666 11.5745 13.98L8.7812 12.32C8.47453 12.32 8.17454 12.3 7.8812 12.26C8.37454 11.68 8.66787 10.9466 8.66787 10.1533C8.66787 8.25997 7.02787 6.72666 5.0012 6.72666C4.22787 6.72666 3.51454 6.94665 2.9212 7.33331C2.9012 7.16665 2.89453 6.99997 2.89453 6.82664C2.89453 3.79331 5.52787 1.33331 8.7812 1.33331C12.0345 1.33331 14.6679 3.79331 14.6679 6.82664C14.6679 8.62664 13.7412 10.22 12.3145 11.22Z" stroke="#0A0C00" stroke-width="1.5" stroke-linecap="round" stroke-linejoin="round"/>
<path d="M8.66536 10.1533C8.66536 10.9467 8.37204 11.68 7.8787 12.26C7.2187 13.06 6.17203 13.5733 4.9987 13.5733L3.2587 14.6066C2.96536 14.7866 2.59203 14.54 2.63203 14.2L2.7987 12.8867C1.90536 12.2667 1.33203 11.2733 1.33203 10.1533C1.33203 8.97999 1.9587 7.94667 2.9187 7.33333C3.51203 6.94667 4.22536 6.72668 4.9987 6.72668C7.02536 6.72668 8.66536 8.25999 8.66536 10.1533Z" stroke="#0A0C00" stroke-width="1.5" stroke-linecap="round" stroke-linejoin="round"/>
</svg>
