<svg width="28" height="28" viewBox="0 0 28 28" fill="none" xmlns="http://www.w3.org/2000/svg">
<path d="M0.732422 15.3332H8.03633C8.27498 19.6917 9.67653 23.7404 11.936 27.1745C5.98347 26.2495 1.33346 21.3869 0.732422 15.3332ZM0.732422 12.6665C1.33346 6.61291 5.98347 1.75035 11.936 0.825363C9.67653 4.25942 8.27498 8.30815 8.03633 12.6665H0.732422ZM27.2675 12.6665H19.9635C19.7248 8.30815 18.3233 4.25942 16.0639 0.825363C22.0164 1.75035 26.6664 6.61291 27.2675 12.6665ZM27.2675 15.3332C26.6664 21.3869 22.0164 26.2495 16.0639 27.1745C18.3233 23.7404 19.7248 19.6917 19.9635 15.3332H27.2675ZM10.7076 15.3332H17.2923C17.0635 19.0437 15.8861 22.4976 13.9999 25.4553C12.1136 22.4976 10.9364 19.0437 10.7076 15.3332ZM10.7076 12.6665C10.9364 8.95612 12.1136 5.5023 13.9999 2.54455C15.8861 5.5023 17.0635 8.95612 17.2923 12.6665H10.7076Z" fill="#00DF8E"/>
</svg>
