<svg width="20" height="20" viewBox="0 0 20 20" fill="none" xmlns="http://www.w3.org/2000/svg">
<path d="M6.49161 17.1912C6.51535 16.8546 6.56306 16.5199 6.63456 16.1897C6.69754 15.8951 6.88867 15.0596 7.16872 13.8498L7.17581 13.8191C7.29895 13.2872 7.43089 12.7192 7.56283 12.1525C7.64199 11.8124 7.70356 11.5484 7.74438 11.4602C7.55012 11.0123 7.45298 10.5263 7.45969 10.0373C7.45969 8.6999 8.2157 7.66359 9.1958 7.6636C9.5555 7.65809 9.8996 7.81388 10.1383 8.09C10.3764 8.3655 10.4863 8.7335 10.4404 9.086C10.4404 9.5385 10.3548 9.8844 9.9865 11.1212C9.9158 11.3587 9.8674 11.5254 9.8215 11.692C9.7696 11.8799 9.7261 12.0503 9.6887 12.2136C9.5928 12.6003 9.6811 13.011 9.9262 13.3195C10.1707 13.6272 10.5421 13.7966 10.9319 13.7762C12.4242 13.7762 13.5321 11.7911 13.5321 9.2277C13.5321 7.25804 12.2412 5.95424 10.1 5.95416C9.0224 5.91127 7.97466 6.32523 7.20095 7.09986C6.42664 7.87508 5.99452 8.9437 6.00559 10.0614C5.98214 10.6633 6.17064 11.2536 6.51804 11.7053C6.69915 11.8441 6.76869 12.0885 6.69262 12.2941C6.65157 12.4632 6.55259 12.8473 6.51649 12.9755C6.49464 13.1032 6.41497 13.2131 6.30126 13.2715C6.18678 13.3303 6.05172 13.3297 5.94618 13.2737C4.78507 12.7954 4.14967 11.4963 4.14967 9.8349C4.14967 6.84907 6.64129 4.2497 10.3417 4.2497C13.4772 4.2497 15.8231 6.57864 15.8231 9.3896C15.8231 12.922 13.8911 15.4942 11.1337 15.4942C10.3393 15.5202 9.5838 15.162 9.087 14.535L9.044 14.712C8.9499 15.0992 8.9028 15.2928 8.8368 15.5638L8.8349 15.5715C8.6887 16.1717 8.5867 16.5885 8.5471 16.7452C8.4412 17.0998 8.307 17.448 8.1471 17.7841C8.7421 17.9253 9.3628 18 10.001 18C14.4193 18 18.001 14.4183 18.001 10C18.001 5.58172 14.4193 2 10.001 2C5.5827 2 2.00098 5.58172 2.00098 10C2.00098 13.1594 3.83244 15.8911 6.49161 17.1912ZM10.001 20C4.47813 20 0.000976562 15.5228 0.000976562 10C0.000976562 4.47715 4.47813 0 10.001 0C15.5238 0 20.001 4.47715 20.001 10C20.001 15.5228 15.5238 20 10.001 20Z" fill="white"/>
</svg>
