<svg width="44" height="43" viewBox="0 0 44 43" fill="none" xmlns="http://www.w3.org/2000/svg">
<g clip-path="url(#clip0_232_118)">
<mask id="mask0_232_118" style="mask-type:luminance" maskUnits="userSpaceOnUse" x="0" y="0" width="44" height="43">
<path d="M43.8191 0H0.362305V43H43.8191V0Z" fill="white"/>
</mask>
<g mask="url(#mask0_232_118)">
<path d="M18.9504 18.2089C17.2865 17.4531 15.4423 17.021 13.49 17.021C6.23977 17.021 0.362305 22.8367 0.362305 30.0102C0.362305 37.1843 6.23977 43 13.49 43C15.4423 43 17.286 42.5679 18.9504 41.8121C15.8628 38.8042 13.9425 34.6263 13.9425 30.0102C13.9425 25.3948 15.8628 21.2167 18.9504 18.2089Z" fill="#1C2220"/>
<path d="M42.6185 24.6057C39.5786 27.6624 35.3563 29.5625 30.6912 29.5625C26.0267 29.5625 21.8043 27.6625 18.7645 24.6057C18.0007 26.2537 17.564 28.0784 17.564 30.0103C17.564 37.1843 23.4414 43 30.6912 43C37.9415 43 43.8189 37.1843 43.8189 30.0103C43.8189 28.0786 43.3822 26.2542 42.6185 24.6057Z" fill="#1C2220"/>
<path d="M30.6915 0C28.7392 0 26.8955 0.432099 25.2295 1.18785C28.3187 4.19565 30.239 8.37366 30.239 12.9898C30.239 17.6052 28.3188 21.7833 25.2295 24.7911C26.895 25.5469 28.7391 25.979 30.6915 25.979C37.9417 25.979 43.8193 20.1633 43.8193 12.9898C43.8193 5.8157 37.9417 0 30.6915 0Z" fill="#1C2220"/>
<path d="M13.49 0C6.23977 0 0.362305 5.8157 0.362305 12.9898C0.362305 14.9215 0.798993 16.7459 1.56278 18.3927C4.60263 15.3376 8.8249 13.4375 13.49 13.4375C18.1545 13.4375 22.377 15.3376 25.4168 18.3927C26.1806 16.7463 26.6173 14.9215 26.6173 12.9898C26.6173 5.8157 20.7398 0 13.49 0Z" fill="#1C2220"/>
</g>
</g>
<defs>
<clipPath id="clip0_232_118">
<rect width="44" height="43" fill="white"/>
</clipPath>
</defs>
</svg>
