<svg width="44" height="44" viewBox="0 0 44 44" fill="none" xmlns="http://www.w3.org/2000/svg">
<g clip-path="url(#clip0_232_127)">
<mask id="mask0_232_127" style="mask-type:luminance" maskUnits="userSpaceOnUse" x="0" y="0" width="44" height="44">
<path d="M43.6379 0H0.181152V43.4568H43.6379V0Z" fill="white"/>
</mask>
<g mask="url(#mask0_232_127)">
<path d="M6.63177 23.0016H1.4543C0.750591 23.0016 0.181152 22.4321 0.181152 21.7284C0.181152 9.79391 9.97507 0 21.9096 0C27.1874 0 32.2725 2.00699 36.2263 5.49576C36.6229 5.8464 36.7609 6.40591 36.5744 6.90072C36.3866 7.39673 35.9129 7.72379 35.3833 7.72379H21.9096C14.1874 7.72379 7.90489 14.0062 7.90489 21.7284C7.90489 22.4321 7.3355 23.0016 6.63177 23.0016Z" fill="#1C2220"/>
<path d="M16.8169 23.0016H11.7243C11.0206 23.0016 10.4512 22.4321 10.4512 21.7284C10.4512 15.4099 15.5911 10.27 21.9095 10.27H39.5546C40.0084 10.27 40.4286 10.5125 40.6562 10.9054C41.6384 12.6012 42.3832 14.4226 42.8718 16.3187C42.9701 16.6991 42.8855 17.1045 42.6443 17.4153C42.403 17.7274 42.0326 17.9089 41.6384 17.9089H21.9095C19.8034 17.9089 18.0901 19.6222 18.0901 21.7283C18.0901 22.4321 17.5207 23.0016 16.8169 23.0016Z" fill="#1C2220"/>
<path d="M21.9095 43.4569C16.6316 43.4569 11.5465 41.4499 7.59276 37.9611C7.19611 37.6105 7.05813 37.051 7.24462 36.5562C7.43235 36.0601 7.90603 35.7331 8.43566 35.7331H21.9095C29.6317 35.7331 35.9141 29.4507 35.9141 21.7285C35.9141 21.0248 36.4835 20.4553 37.1873 20.4553H42.3647C43.0684 20.4553 43.6379 21.0248 43.6379 21.7285C43.6379 33.663 33.844 43.4569 21.9095 43.4569Z" fill="#1C2220"/>
<path d="M21.9096 33.1869H4.26456C3.81072 33.1869 3.3905 32.9444 3.16294 32.5515C2.18075 30.8557 1.43596 29.0342 0.947326 27.1382C0.849124 26.7578 0.933664 26.3524 1.17488 26.0416C1.41619 25.7295 1.78667 25.5479 2.18084 25.5479H21.9096C24.0157 25.5479 25.7291 23.8346 25.7291 21.7285C25.7291 21.0248 26.2985 20.4553 27.0022 20.4553H32.0948C32.7985 20.4553 33.368 21.0248 33.368 21.7285C33.368 28.047 28.2281 33.1869 21.9096 33.1869Z" fill="#1C2220"/>
</g>
</g>
<defs>
<clipPath id="clip0_232_127">
<rect width="44" height="43.4568" fill="white"/>
</clipPath>
</defs>
</svg>
