<svg width="38" height="44" viewBox="0 0 38 44" fill="none" xmlns="http://www.w3.org/2000/svg">
<path d="M4.60642 18.1052H0.985352C0.985352 32.1059 12.3341 43.4568 26.3348 43.4568V39.8352C14.3337 39.8352 4.60642 30.1063 4.60642 18.1052Z" fill="#1C2220"/>
<path d="M26.3349 3.62157V0C16.3339 0 8.22803 8.10583 8.22803 18.1052C8.22803 28.1062 16.3339 36.2142 26.3349 36.2142V32.5926C18.334 32.5926 11.8496 26.1067 11.8496 18.1058C11.8496 10.1075 18.3339 3.62157 26.3349 3.62157Z" fill="#1C2220"/>
<path d="M26.3349 7.24268C20.3335 7.24268 15.4707 12.1055 15.4707 18.1053C15.4707 24.1067 20.3335 28.9711 26.3349 28.9711V18.1069L37.1991 18.1053C37.1991 12.1055 32.3368 7.24268 26.3349 7.24268Z" fill="#1C2220"/>
</svg>
