<svg width="24" height="30" viewBox="0 0 24 30" fill="none" xmlns="http://www.w3.org/2000/svg">
<path d="M1.68005 13.6933V20.32C1.68005 22.7467 1.68005 22.7467 3.97339 24.2933L10.2801 27.9333C11.2267 28.48 12.7734 28.48 13.7201 27.9333L20.0267 24.2933C22.3201 22.7467 22.3201 22.7467 22.3201 20.32V13.6933C22.3201 11.2667 22.3201 11.2667 20.0267 9.72L13.7201 6.08C12.7734 5.53333 11.2267 5.53333 10.2801 6.08L3.97339 9.72C1.68005 11.2667 1.68005 11.2667 1.68005 13.6933Z" stroke="#00DF8E" stroke-width="1.5" stroke-linecap="round" stroke-linejoin="round"/>
<path d="M19.3333 9.17334V5.66667C19.3333 3.00001 18 1.66667 15.3333 1.66667H8.66663C5.99996 1.66667 4.66663 3.00001 4.66663 5.66667V9.08" stroke="#00DF8E" stroke-width="1.5" stroke-linecap="round" stroke-linejoin="round"/>
<path d="M12.84 13.6533L13.6 14.84C13.72 15.0267 13.9867 15.2133 14.1867 15.2667L15.5467 15.6133C16.3867 15.8267 16.6133 16.5467 16.0667 17.2133L15.1733 18.2933C15.04 18.4667 14.9333 18.7733 14.9467 18.9867L15.0267 20.3867C15.08 21.2533 14.4667 21.6933 13.6667 21.3733L12.36 20.8533C12.16 20.7733 11.8267 20.7733 11.6267 20.8533L10.32 21.3733C9.51999 21.6933 8.90666 21.24 8.95999 20.3867L9.03999 18.9867C9.05332 18.7733 8.94666 18.4533 8.81332 18.2933L7.91999 17.2133C7.37332 16.5467 7.59999 15.8267 8.43999 15.6133L9.79999 15.2667C10.0133 15.2133 10.28 15.0133 10.3867 14.84L11.1467 13.6533C11.6267 12.9333 12.3733 12.9333 12.84 13.6533Z" stroke="#00DF8E" stroke-width="1.5" stroke-linecap="round" stroke-linejoin="round"/>
</svg>
