<svg width="20" height="20" viewBox="0 0 20 20" fill="none" xmlns="http://www.w3.org/2000/svg">
<g clip-path="url(#clip0_232_174)">
<path d="M9.1416 1.6665H7.47493C3.30827 1.6665 1.6416 3.33317 1.6416 7.49984V12.4998C1.6416 16.6665 3.30827 18.3332 7.47493 18.3332H12.4749C16.6416 18.3332 18.3083 16.6665 18.3083 12.4998V10.8332" stroke="#292D32" stroke-width="1.5" stroke-linecap="round" stroke-linejoin="round"/>
<path d="M18.2334 2.96669C17.2084 5.52502 14.6334 9.00835 12.4834 10.7334L11.1667 11.7834C11 11.9084 10.8334 12.0084 10.6417 12.0834C10.6417 11.9584 10.6334 11.8334 10.6167 11.7C10.5417 11.1417 10.2917 10.6167 9.8417 10.175C9.38337 9.71669 8.83337 9.45835 8.2667 9.38335C8.13337 9.37502 8.00003 9.36669 7.8667 9.37502C7.9417 9.16669 8.05003 8.97502 8.1917 8.81669L9.2417 7.50002C10.9667 5.35002 14.4584 2.75835 17.0084 1.73335C17.4 1.58335 17.7834 1.70002 18.025 1.94169C18.275 2.19169 18.3917 2.57502 18.2334 2.96669Z" stroke="#292D32" stroke-width="1.5" stroke-linecap="round" stroke-linejoin="round"/>
<path d="M10.6499 12.0751C10.6499 12.8084 10.3666 13.5084 9.84158 14.0417C9.43325 14.4501 8.88325 14.7334 8.22491 14.8167L6.58325 14.9917C5.69158 15.0917 4.92492 14.3334 5.02492 13.4251L5.19991 11.7834C5.35825 10.3251 6.57491 9.39173 7.87491 9.36673C8.00825 9.3584 8.14158 9.36673 8.27492 9.37507C8.84158 9.45007 9.39158 9.7084 9.84991 10.1667C10.2999 10.6167 10.5499 11.1334 10.6249 11.6917C10.6416 11.8251 10.6499 11.9584 10.6499 12.0751Z" stroke="#292D32" stroke-width="1.5" stroke-linecap="round" stroke-linejoin="round"/>
<path d="M13.1832 9.98353C13.1832 8.24186 11.7749 6.8252 10.0249 6.8252" stroke="#292D32" stroke-width="1.5" stroke-linecap="round" stroke-linejoin="round"/>
</g>
<defs>
<clipPath id="clip0_232_174">
<rect width="20" height="20" fill="white"/>
</clipPath>
</defs>
</svg>
