<svg width="24" height="24" viewBox="0 0 24 24" fill="none" xmlns="http://www.w3.org/2000/svg">
<g clip-path="url(#clip0_250_229)">
<path d="M10.0474 17.6128L5.24658 12.8122L6.92601 11.1328L10.0474 14.2542L17.0745 7.22705L18.7539 8.90648L10.0474 17.6128Z" fill="#0A0C00"/>
<path d="M12.0001 23.4001C5.71412 23.4001 0.600098 18.2861 0.600098 12.0001C0.600098 5.71412 5.71412 0.600098 12.0001 0.600098C18.2861 0.600098 23.4001 5.71412 23.4001 12.0001C23.4001 18.2861 18.2861 23.4001 12.0001 23.4001ZM12.0001 2.0251C6.49991 2.0251 2.0251 6.49991 2.0251 12.0001C2.0251 17.5003 6.49991 21.9751 12.0001 21.9751C17.5003 21.9751 21.9751 17.5003 21.9751 12.0001C21.9751 6.49991 17.5003 2.0251 12.0001 2.0251Z" fill="#0A0C00"/>
</g>
<defs>
<clipPath id="clip0_250_229">
<rect width="24" height="24" fill="white"/>
</clipPath>
</defs>
</svg>
