<svg width="50" height="43" viewBox="0 0 50 43" fill="none" xmlns="http://www.w3.org/2000/svg">
<path d="M21.8663 22.2182V21.7182H21.3663H14.753C15.6052 18.8752 18.0323 14.0045 22.0887 7.06358L22.3454 6.62434L21.9017 6.3753L13.6169 1.72416L13.2274 1.50549L12.9664 1.868C7.73006 9.14066 4.44261 14.8155 3.15721 18.8694L3.15715 18.8694L3.15491 18.8768C1.97041 22.8252 1.38965 28.796 1.38965 36.753V41.8402V42.3402H1.88965H21.3663H21.8663V41.8402V22.2182ZM48.3196 22.2182V21.7182H47.8196H41.2063C42.0585 18.8752 44.4856 14.0045 48.542 7.06357L48.7987 6.62434L48.3551 6.3753L40.0702 1.72416L39.6807 1.50549L39.4197 1.868C34.1834 9.14066 30.8959 14.8155 29.6105 18.8694L29.6105 18.8694L29.6082 18.8768C28.4237 22.8252 27.843 28.796 27.843 36.753V41.8402V42.3402H28.343H47.8196H48.3196V41.8402V22.2182Z" stroke="#FF7020"/>
</svg>
