<!-- Generated by IcoMoon.io -->
<svg version="1.1" xmlns="http://www.w3.org/2000/svg" width="1024" height="1024" viewBox="0 0 1024 1024">
<title></title>
<g id="icomoon-ignore">
</g>
<path fill="#fff" d="M925.518 448.321c-25.518 0-237.437 24.238-349.839 37.358 88.719-70.239 255.683-202.959 273.842-221.039 56.797-56.879 37.12-93.6 20.32-110.4-27.84-27.84-68.401-21.76-110.401 20.32-18.080 18.080-150.798 185.042-221.041 273.761 13.042-112.401 37.362-324.321 37.362-349.841 0-80.48-39.922-92.48-63.683-92.48-23.757 0-63.679 12-63.679 92.48 0 25.52 24.242 237.52 37.28 349.841-70.239-88.719-202.959-255.681-221.039-273.761-42.080-42.080-82.56-48.16-110.4-20.32-17.12 17.12-21.681 39.52-12.879 63.040 5.6 14.961 16.799 30.88 33.199 47.36 18.080 18.080 185.042 150.719 273.761 220.961-112.401-13.042-324.321-37.362-349.921-37.362-80.4 0.082-92.4 40-92.4 63.761s12 63.679 92.4 63.679c25.6 0 237.44-24.238 349.839-37.28-88.719 70.243-255.679 202.961-273.759 221.041-16.401 16.401-27.601 32.321-33.201 47.282-8.879 23.599-4.241 45.998 12.881 63.040 11.36 11.278 25.199 17.357 40.079 17.357 21.76 0 45.359-12.639 70.319-37.597 18.081-18.080 150.802-185.123 221.042-273.842-13.042 112.402-37.28 324.321-37.28 349.921 0 80.402 39.918 92.399 63.679 92.399s63.679-11.997 63.679-92.399c0-25.6-24.238-237.441-37.358-349.839 70.239 88.719 202.959 255.68 221.041 273.76 24.957 24.959 48.64 37.597 70.4 37.597 14.879 0 28.719-5.997 40-17.357 16.797-16.8 36.557-53.521-20.323-110.4-18.077-18.081-185.041-150.802-273.838-221.041 112.398 13.038 324.317 37.28 349.839 37.28 80.48 0 92.481-39.84 92.481-63.679 0.078-23.683-11.919-63.601-92.403-63.601z"></path>
</svg>
