<svg width="210" height="90" viewBox="0 0 210 90" fill="none" xmlns="http://www.w3.org/2000/svg">
<path fill-rule="evenodd" clip-rule="evenodd" d="M34.9184 19.8576C32.9578 17.91 29.7798 17.9107 27.8201 19.859L11.4646 36.1196L11.4507 36.1156L11.399 36.1211C11.4203 36.1312 11.4412 36.1413 11.4616 36.1515C8.59253 36.4501 7.37521 37.307 7.36143 38.4073C7.36629 38.8166 7.53527 39.2587 7.84567 39.7175L7.83074 39.7324C10.439 43.6419 23.3605 48.7992 32.5021 45.305C25.6508 48.7093 9.5158 49.3841 4.77669 42.7741C3.7475 43.8806 3.3169 45.3347 3.47906 46.7321C4.731 53.5895 18.7278 55.4604 32.7247 45.5248L35.7535 48.5348C31.9845 52.3829 26.4173 74.7348 34.6896 71.3222C34.8858 71.1898 35.0524 71.0713 35.2789 70.901L35.6476 70.5551C35.6263 70.5603 35.6052 70.5652 35.5842 70.5702L57.7392 49.7845C59.7963 47.8545 59.8429 44.6172 57.842 42.6295L34.9184 19.8576ZM32.5057 26.6314L33.2629 23.6214L34.0201 26.6314L36.2918 27.384L34.0201 28.1365L33.2629 31.1465L32.5057 28.1365L30.2341 27.384L32.5057 26.6314ZM23.1333 36.4576L23.6381 34.4508L24.1429 36.4576L25.6574 36.9592L24.1429 37.4609L23.6381 39.4676L23.1333 37.4609L21.6189 36.9592L23.1333 36.4576ZM40.715 53.384L40.2102 55.3906L38.6959 55.8924L40.2102 56.394L40.715 58.4006L41.2198 56.394L42.7343 55.8924L41.2198 55.3906L40.715 53.384Z" fill="#0A0C00"/>
<path d="M72.0536 31.0115H67.3521V52.0939H80.3673V47.9629H72.0536V31.0115Z" fill="#0A0C00"/>
<path d="M80.8164 44.943C80.8164 49.4444 83.8552 52.4358 88.442 52.4358C93.0003 52.4358 96.039 49.4444 96.039 44.943C96.039 40.4416 93.0003 37.4218 88.442 37.4218C83.8552 37.4218 80.8164 40.4416 80.8164 44.943ZM85.26 44.9146C85.26 42.7778 86.5213 41.3533 88.442 41.3533C90.3341 41.3533 91.5956 42.7778 91.5956 44.9146C91.5956 47.0798 90.3341 48.5043 88.442 48.5043C86.5213 48.5043 85.26 47.0798 85.26 44.9146Z" fill="#0A0C00"/>
<path d="M96.7491 44.7151C96.7491 49.017 99.5587 51.923 103.543 51.923C105.464 51.923 107.127 51.2392 107.958 50.1282V52.094C107.958 54.0597 106.726 55.3704 104.547 55.3704C102.597 55.3704 101.25 54.4586 101.164 52.8347H96.6919C97.0931 56.7378 100.132 59.3589 104.289 59.3589C109.191 59.3589 112.287 56.1965 112.287 51.1822V37.8491H108.302L108.073 39.302C107.27 38.1339 105.579 37.3647 103.63 37.3647C99.616 37.3647 96.7491 40.3561 96.7491 44.7151ZM101.221 44.6011C101.221 42.5499 102.597 41.1823 104.346 41.1823C106.382 41.1823 107.872 42.5214 107.872 44.6011C107.872 46.6809 106.41 48.1054 104.375 48.1054C102.626 48.1054 101.221 46.6809 101.221 44.6011Z" fill="#0A0C00"/>
<path d="M113.574 44.943C113.574 49.4444 116.613 52.4358 121.2 52.4358C125.758 52.4358 128.797 49.4444 128.797 44.943C128.797 40.4416 125.758 37.4218 121.2 37.4218C116.613 37.4218 113.574 40.4416 113.574 44.943ZM118.018 44.9146C118.018 42.7778 119.279 41.3533 121.2 41.3533C123.092 41.3533 124.353 42.7778 124.353 44.9146C124.353 47.0798 123.092 48.5043 121.2 48.5043C119.279 48.5043 118.018 47.0798 118.018 44.9146Z" fill="#0A0C00"/>
<path d="M132.603 35.6269C133.979 35.6269 135.097 34.5158 135.097 33.1198C135.097 31.7237 133.979 30.6411 132.603 30.6411C131.198 30.6411 130.08 31.7237 130.08 33.1198C130.08 34.5158 131.198 35.6269 132.603 35.6269ZM130.367 52.094H134.811V37.8491H130.367V52.094Z" fill="#0A0C00"/>
<path d="M137.396 58.9315H141.754V50.6695C142.586 51.7521 144.477 52.4928 146.457 52.4928C150.728 52.4928 153.308 49.245 153.192 44.7436C153.078 40.1567 150.413 37.3932 146.428 37.3932C144.392 37.3932 142.472 38.2764 141.669 39.587L141.439 37.8491H137.396V58.9315ZM141.841 44.9714C141.841 42.8348 143.274 41.4103 145.338 41.4103C147.431 41.4103 148.75 42.8632 148.75 44.9714C148.75 47.0798 147.431 48.5327 145.338 48.5327C143.274 48.5327 141.841 47.1082 141.841 44.9714Z" fill="#0A0C00"/>
<path d="M153.664 47.5925C153.778 50.4701 156.072 52.4643 159.684 52.4643C163.153 52.4643 165.561 50.6409 165.561 47.7065C165.561 45.5983 164.299 44.2023 161.948 43.6325L159.397 43.0057C158.479 42.7778 157.907 42.5499 157.907 41.8092C157.907 41.0684 158.508 40.584 159.397 40.584C160.401 40.584 161.06 41.2393 161.031 42.2081H165.017C164.901 39.2451 162.637 37.3932 159.483 37.3932C156.3 37.3932 153.922 39.2735 153.922 42.1225C153.922 44.0314 154.983 45.5983 157.82 46.3391L160.343 46.9942C161.088 47.1937 161.403 47.5355 161.403 48.02C161.403 48.7321 160.745 49.188 159.626 49.188C158.336 49.188 157.648 48.5897 157.648 47.5925H153.664Z" fill="#0A0C00"/>
<path d="M172.318 52.4642C174.067 52.4642 175.816 51.6666 176.704 50.4984L176.992 52.0939H181.148V37.849H176.733V45.2564C176.733 47.393 176.102 48.5612 174.067 48.5612C172.49 48.5612 171.458 47.8489 171.458 45.1994V37.849H167.043V46.7947C167.043 50.1851 168.936 52.4642 172.318 52.4642Z" fill="#0A0C00"/>
<path d="M188.15 52.094V44.3163C188.15 41.9231 189.44 41.2393 190.701 41.2393C192.106 41.2393 193.023 42.0941 193.023 43.8604V52.094H197.38V44.3163C197.38 41.8946 198.642 41.2109 199.903 41.2109C201.308 41.2109 202.254 42.0655 202.254 43.8604V52.094H206.555V42.7778C206.555 39.53 204.834 37.3647 201.136 37.3647C199.072 37.3647 197.381 38.3619 196.635 39.9003C195.775 38.3619 194.284 37.3647 191.905 37.3647C190.328 37.3647 188.866 38.0769 188.007 39.2165L187.835 37.8491H183.706V52.094H188.15Z" fill="#0A0C00"/>
<path fill-rule="evenodd" clip-rule="evenodd" d="M59.4456 21.8495C54.7091 21.8495 50.2174 23.9402 47.1851 27.5563L36.3977 40.4209L42.6268 31.1352L32.2869 35.539C30.9738 36.0983 30.6443 37.7986 31.6544 38.8025L34.9819 42.1092L33.283 44.1352L37.0206 47.8495L39.0592 46.1611L42.3866 49.4679C43.3967 50.4717 45.1077 50.1443 45.6704 48.8395L50.1017 38.5638L40.7581 44.7543L53.7031 34.0337C57.3418 31.0204 59.4456 26.5565 59.4456 21.8495ZM49.1675 32.064C50.1995 33.0896 51.8728 33.0896 52.905 32.064C53.937 31.0383 53.937 29.3753 52.905 28.3497C51.8728 27.324 50.1995 27.324 49.1675 28.3497C48.1354 29.3753 48.1354 31.0383 49.1675 32.064Z" fill="#0A0C00"/>
<path opacity="0.6" d="M4.65674 42.6012C7.1314 51.027 22.1768 50.5877 32.4994 45.3063C25.5872 48.7388 9.23608 49.3944 4.65674 42.6012Z" fill="#0A0C00"/>
<path opacity="0.6" d="M34.6896 71.3221C27.7192 74.1977 30.5752 58.7798 33.9016 51.5537C31.4769 57.9766 29.4071 72.1354 35.6476 70.5551L35.2789 70.901C35.0524 71.0713 34.8859 71.1898 34.6896 71.3221Z" fill="#0A0C00"/>
</svg>
