<svg width="163" height="90" viewBox="0 0 163 90" fill="none" xmlns="http://www.w3.org/2000/svg">
<path d="M4.02832 62.0551H39.1624V27H4.02832V62.0551ZM32.4 41.1545H24.976V33.7472H32.4V41.1545ZM10.7894 33.7472H18.2176V47.9004H32.4V55.3078H10.7894V33.7472ZM62.0413 27C58.5668 27 55.1704 28.028 52.2816 29.9539C49.3927 31.8799 47.1411 34.6173 45.8115 37.82C44.4819 41.0228 44.1341 44.5468 44.8118 47.9468C45.4897 51.3468 47.1627 54.4699 49.6195 56.9212C52.0763 59.3726 55.2064 61.0418 58.6141 61.7182C62.0219 62.3945 65.5539 62.0474 68.7639 60.7209C71.9739 59.3943 74.7174 57.1478 76.6478 54.2652C78.578 51.3828 79.6083 47.994 79.6083 44.5274C79.6029 39.8805 77.7503 35.4256 74.457 32.1397C71.1637 28.8538 66.6988 27.0054 62.0413 27ZM62.0413 55.3078C59.9044 55.3078 57.8154 54.6755 56.0386 53.4909C54.2619 52.3064 52.8769 50.6228 52.0592 48.6529C51.2414 46.6831 51.0275 44.5155 51.4443 42.4243C51.8612 40.3331 52.8903 38.4123 54.4013 36.9047C55.9124 35.3971 57.8376 34.3703 59.9334 33.9544C62.0293 33.5384 64.2017 33.7519 66.1761 34.5678C68.1503 35.3838 69.8378 36.7655 71.025 38.5383C72.2123 40.311 72.8459 42.3953 72.8459 44.5274C72.8415 47.3853 71.7018 50.1248 69.6764 52.1455C67.6511 54.1663 64.9055 55.3033 62.0413 55.3078ZM142.471 27C138.996 26.9997 135.6 28.0275 132.711 29.9533C129.822 31.879 127.571 34.6164 126.241 37.819C124.911 41.0217 124.563 44.546 125.241 47.946C125.918 51.3461 127.591 54.4695 130.048 56.9208C132.505 59.3722 135.635 61.0418 139.043 61.7182C142.45 62.3945 145.982 62.0474 149.193 60.7209C152.402 59.3944 155.146 57.1478 157.076 54.2653C159.007 51.3829 160.037 47.9941 160.037 44.5274C160.032 39.8808 158.18 35.426 154.887 32.1402C151.594 28.8543 147.129 27.0058 142.471 27ZM142.471 55.3078C140.335 55.3081 138.246 54.6759 136.469 53.4915C134.692 52.3072 133.306 50.6236 132.488 48.6538C131.67 46.684 131.456 44.5164 131.873 42.4251C132.29 40.334 133.319 38.413 134.83 36.9052C136.341 35.3974 138.266 34.3705 140.362 33.9545C142.458 33.5384 144.63 33.7518 146.604 34.5677C148.579 35.3836 150.267 36.7653 151.454 38.5382C152.64 40.311 153.275 42.3953 153.275 44.5274C153.271 47.385 152.131 50.1242 150.105 52.145C148.081 54.1657 145.336 55.3031 142.471 55.3078ZM102.256 27C98.7813 27 95.3848 28.028 92.496 29.9539C89.6071 31.8799 87.3555 34.6173 86.0259 37.82C84.6963 41.0228 84.3485 44.5468 85.0263 47.9468C85.7041 51.3468 87.3771 54.4699 89.8339 56.9212C92.2907 59.3726 95.4209 61.0418 98.8285 61.7182C102.236 62.3945 105.768 62.0474 108.978 60.7209C112.188 59.3943 114.932 57.1478 116.862 54.2652C118.792 51.3828 119.823 47.994 119.823 44.5274C119.817 39.8805 117.965 35.4256 114.671 32.1397C111.378 28.8538 106.913 27.0054 102.256 27ZM102.256 55.3078C100.265 55.3088 98.3123 54.7609 96.6136 53.7244C94.9151 52.6881 93.5365 51.2039 92.6301 49.4351C91.7239 47.6664 91.3249 45.682 91.4775 43.7014C91.6301 41.7207 92.3281 39.8206 93.4947 38.2108C94.6613 36.6012 96.2511 35.3443 98.0883 34.5791C99.9257 33.8139 101.939 33.5701 103.907 33.8747C105.874 34.1792 107.719 35.0202 109.238 36.3048C110.756 37.5895 111.889 39.2678 112.512 41.1545H102.256V47.9004H112.512C111.799 50.0533 110.424 51.9277 108.583 53.2572C106.742 54.5868 104.528 55.304 102.256 55.3078Z" fill="#0A0C00"/>
</svg>
