<svg width="150" height="90" viewBox="0 0 150 90" fill="none" xmlns="http://www.w3.org/2000/svg">
<path d="M30.5703 45.9046C30.5703 43.8237 31.8127 42.3741 33.7114 42.3741C35.6101 42.3741 36.8524 43.8237 36.8524 45.9046C36.8524 47.9622 35.6101 49.4351 33.7114 49.4351C31.8127 49.4351 30.5703 47.9622 30.5703 45.9046Z" fill="#0A0C00"/>
<path d="M46.6278 42.2806C44.8229 42.2806 43.604 43.6834 43.604 45.6007C43.604 47.5413 44.8463 48.9909 46.6278 48.9909C48.5968 48.9909 49.9095 47.5179 49.9095 45.6007C49.9095 43.7068 48.5968 42.2806 46.6278 42.2806Z" fill="#0A0C00"/>
<path d="M57.0913 45.9046C57.0913 43.8237 58.3337 42.3741 60.2324 42.3741C62.1311 42.3741 63.3734 43.8237 63.3734 45.9046C63.3734 47.9622 62.1311 49.4351 60.2324 49.4351C58.3337 49.4351 57.0913 47.9622 57.0913 45.9046Z" fill="#0A0C00"/>
<path d="M76.1934 45.928C76.1934 43.8471 77.4592 42.3975 79.4516 42.3975C81.4441 42.3975 82.6395 43.8705 82.6395 45.928C82.6395 47.9855 81.4441 49.4351 79.4516 49.4351C77.4592 49.4351 76.1934 48.0089 76.1934 45.928Z" fill="#0A0C00"/>
<path fill-rule="evenodd" clip-rule="evenodd" d="M75.0001 70.3654C114.828 70.3654 147.115 59.0649 147.115 45.125C147.115 31.1851 114.828 19.8846 75.0001 19.8846C35.1719 19.8846 2.88477 31.1851 2.88477 45.125C2.88477 59.0649 35.1719 70.3654 75.0001 70.3654ZM25.9368 51.7031V34.3077H23.077V51.7031H25.9368ZM27.6871 45.9046C27.6871 49.4585 30.0781 51.9837 33.7114 51.9837C37.3447 51.9837 39.7356 49.4585 39.7356 45.9046C39.7356 42.3507 37.3447 39.8256 33.7114 39.8256C30.0781 39.8256 27.6871 42.3507 27.6871 45.9046ZM46.1357 51.4693C42.8774 51.4693 40.6974 49.0377 40.6974 45.6708C40.6974 42.2806 42.9243 39.7788 46.2294 39.7788C47.9406 39.7788 49.3939 40.5037 50.0971 41.7195L50.2612 40.1529H52.7928V51.1186C52.7928 54.9297 50.4019 57.3846 46.6514 57.3846C43.4634 57.3846 41.1428 55.4207 40.7678 52.4045H43.651C43.815 53.9243 45.034 54.7894 46.8154 54.7894C48.8079 54.7894 50.0034 53.5268 50.0034 51.6329V49.669C49.2767 50.7912 47.8234 51.4693 46.1357 51.4693ZM54.208 45.9046C54.208 49.4585 56.599 51.9837 60.2323 51.9837C63.8656 51.9837 66.2565 49.4585 66.2565 45.9046C66.2565 42.3507 63.8656 39.8256 60.2323 39.8256C56.599 39.8256 54.208 42.3507 54.208 45.9046ZM71.0626 36.0847C71.0626 37.0433 70.2891 37.7915 69.3514 37.7915C68.3904 37.7915 67.6637 37.0433 67.6637 36.0847C67.6637 35.1494 68.3904 34.4012 69.3514 34.4012C70.2891 34.4012 71.0626 35.1494 71.0626 36.0847ZM70.7813 40.1529V51.7031H67.9216V40.1529H70.7813ZM73.2867 57.0573H76.0762V50.1132C76.8028 51.3056 78.3733 52.007 80.108 52.007C83.5303 52.007 85.5696 49.3884 85.5227 45.7877C85.4524 42.1637 83.3662 39.8022 80.0845 39.8022C78.3265 39.8022 76.7325 40.5738 76.0293 41.9065L75.8652 40.1529H73.2867V57.0573ZM90.8901 52.007C88.1241 52.007 86.3426 50.534 86.2489 48.2427H88.8508C88.8508 49.2481 89.5774 49.8326 90.8432 49.8326C91.8981 49.8326 92.7654 49.4118 92.7654 48.4999C92.7654 47.8452 92.2965 47.4945 91.5464 47.2841L89.5306 46.7697C87.3037 46.1852 86.4364 44.946 86.4364 43.4496C86.4364 41.2518 88.2882 39.8022 90.7729 39.8022C93.281 39.8022 94.9922 41.2518 95.086 43.5432H92.4841C92.4841 42.5378 91.7808 41.9299 90.7026 41.9299C89.6712 41.9299 89.0383 42.491 89.0383 43.286C89.0383 44.0342 89.6243 44.3381 90.4916 44.5719L92.531 45.0629C94.4297 45.5305 95.461 46.6528 95.461 48.3129C95.461 50.5574 93.6092 52.007 90.8901 52.007ZM101.393 52.007C102.963 52.007 104.463 51.2822 105.143 50.2067L105.331 51.7031H108.003V40.1529H105.143V46.2086C105.143 48.2895 104.346 49.4585 102.471 49.4585C101.018 49.4585 100.01 48.7571 100.01 46.3723V40.1529H97.15V47.3776C97.15 50.1366 98.6502 52.007 101.393 52.007ZM113.387 45.0629V51.7031H110.527V40.1529H113.152L113.293 41.4623C113.973 40.4335 115.192 39.8022 116.551 39.8022C118.473 39.8022 119.739 40.6439 120.372 42C120.935 40.6439 122.318 39.8022 124.076 39.8022C126.889 39.8022 128.365 41.4857 128.365 44.1511V51.7031H125.599V44.8057C125.599 43.1691 124.709 42.304 123.326 42.304C121.966 42.304 120.888 43.1925 120.888 45.0863V51.7031H118.098V44.8057C118.098 43.1691 117.208 42.304 115.848 42.304C114.489 42.304 113.387 43.1925 113.387 45.0629Z" fill="#0A0C00"/>
</svg>
