<svg width="154" height="90" viewBox="0 0 154 90" fill="none" xmlns="http://www.w3.org/2000/svg">
<path d="M58.5972 48.1813C58.5972 45.0442 59.4093 42.8307 61.0336 41.5408C62.6739 40.2509 64.967 39.606 67.9131 39.606C70.5725 39.606 72.6586 40.0359 74.1714 40.8958C75.6843 41.7399 76.592 43.1571 76.8945 45.1477H73.2398C73.001 44.0967 72.4436 43.3801 71.5677 42.9979C70.6919 42.5998 69.4737 42.4007 67.9131 42.4007C66.0817 42.4007 64.6804 42.759 63.709 43.4756C62.7376 44.1922 62.2519 45.4582 62.2519 47.2736V49.0413C62.2519 50.8408 62.7296 52.1068 63.6851 52.8393C64.6565 53.5559 66.0578 53.9142 67.8892 53.9142C69.7683 53.9142 71.1617 53.6276 72.0694 53.0543C72.9771 52.4651 73.4867 51.5335 73.5981 50.2595H68.128V47.7992H77.1095V49.3279C77.1095 51.8599 76.2974 53.7231 74.673 54.9175C73.0487 56.1118 70.7954 56.709 67.9131 56.709C66.4321 56.709 65.1103 56.5656 63.9478 56.279C62.8013 55.9764 61.8299 55.4907 61.0336 54.8219C60.2374 54.1531 59.6323 53.2772 59.2182 52.1943C58.8042 51.0955 58.5972 49.7579 58.5972 48.1813ZM97.5873 56.3984L88.7969 43.4279V56.3984H85.4527V39.9165H90.4212L99.1877 52.8393V39.9165H102.532V56.3984H97.5873ZM110.921 48.1813C110.921 45.0442 111.733 42.8307 113.357 41.5408C114.982 40.2509 117.251 39.606 120.165 39.606C122.824 39.606 124.903 40.0439 126.4 40.9197C127.912 41.7956 128.788 43.2766 129.027 45.3627H125.372C125.165 44.1843 124.624 43.404 123.748 43.0218C122.888 42.6237 121.694 42.4246 120.165 42.4246C118.493 42.4246 117.139 42.767 116.104 43.4517C115.085 44.1206 114.576 45.3945 114.576 47.2736V49.0174C114.576 50.8487 115.085 52.1227 116.104 52.8393C117.123 53.54 118.485 53.8903 120.189 53.8903C121.654 53.8903 122.824 53.7072 123.7 53.3409C124.576 52.9747 125.142 52.2421 125.396 51.1433H129.051C128.764 53.1339 127.873 54.5591 126.376 55.4191C124.879 56.279 122.809 56.709 120.165 56.709C118.716 56.709 117.41 56.5656 116.248 56.279C115.101 55.9764 114.13 55.4907 113.333 54.8219C112.553 54.1531 111.956 53.2772 111.542 52.1943C111.128 51.0955 110.921 49.7579 110.921 48.1813ZM142.372 49.6146L134.465 39.9165H138.598L144.354 47.0109L149.681 39.9165H153.36L146.003 49.6146V56.3984H142.372V49.6146Z" fill="black"/>
<path d="M4.03662 30.3237H27.6647C31.6344 30.3237 34.7308 31.2606 36.9539 33.1343C39.177 34.9763 40.2885 37.6757 40.2885 41.2326C40.2885 43.7098 39.7486 45.8058 38.6688 47.5207C37.6208 49.2039 36.1441 50.4584 34.2386 51.2841L41.0031 63.1934H29.2843L23.2344 52.5226H14.7074V63.1934H4.03662V30.3237ZM29.4749 41.709V40.9468C29.4749 40.0576 29.2208 39.3748 28.7127 38.8984C28.2046 38.3903 27.2994 38.1362 25.9974 38.1362H14.7074V44.6149H25.9974C27.2677 44.6149 28.1569 44.3608 28.665 43.8527C29.2049 43.3128 29.4749 42.5982 29.4749 41.709Z" fill="black"/>
<path fill-rule="evenodd" clip-rule="evenodd" d="M52.8048 34.7965V18.918H36.9258V23.8038H47.919V34.7965H52.8048Z" fill="black"/>
</svg>
